<svg width="67" height="17" viewBox="0 0 67 17" xmlns="http://www.w3.org/2000/svg" style="font-size: inherit; vertical-align: bottom; height: 0.96em; width: auto;"><g fill="#fff"><path d="M7.76234 1.20181C11.6918 1.20181 14.8773 4.38735 14.8773 8.31699C14.8773 12.2467 11.6918 15.4324 7.76234 15.4324C3.8327 15.4324 0.646973 12.2467 0.646973 8.31699C0.646973 4.38735 3.8327 1.20181 7.76234 1.20181ZM7.76234 3.67654C5.19947 3.67654 3.12208 5.75412 3.12208 8.31699C3.12208 10.8798 5.19947 12.9575 7.76234 12.9575C10.3251 12.9575 12.4026 10.8798 12.4026 8.31699C12.4026 5.75412 10.3251 3.67654 7.76234 3.67654ZM7.76262 6.04039C9.02018 6.04039 10.0396 7.05984 10.0396 8.3174C10.0396 9.57495 9.02018 10.5944 7.76262 10.5944C6.50507 10.5944 5.48562 9.57495 5.48562 8.3174C5.48562 7.05984 6.50507 6.04039 7.76262 6.04039Z"></path><path d="M20.234 13.3456C22.7061 13.3456 24.3541 11.9841 24.6945 9.54791H22.2403C22.0612 10.7839 21.3447 11.4288 20.2161 11.4288C18.7293 11.4288 18.1023 10.0316 18.1023 8.50893C18.1023 7.00419 18.7293 5.49945 20.2699 5.49945C21.3626 5.49945 21.9895 6.03686 22.1508 7.09376H24.6408C24.5154 4.87248 22.6523 3.58271 20.2878 3.58271C17.3499 3.58271 15.5586 5.64276 15.5586 8.59849C15.5586 11.2855 17.3499 13.3456 20.234 13.3456Z"></path><path d="M26.5961 2.86616C27.3843 2.86616 28.0292 2.22128 28.0292 1.43308C28.0292 0.644886 27.3843 0 26.5961 0C25.8079 0 25.163 0.644886 25.163 1.43308C25.163 2.22128 25.8079 2.86616 26.5961 2.86616ZM25.3242 13.0948H27.8679V3.83349H25.3242V13.0948Z"></path><path d="M29.3073 13.0948H31.851V8.92094C31.851 7.21915 32.5138 5.94729 34.3589 5.94729C34.7171 5.94729 35.0217 5.98312 35.2725 6.03686V3.67227C35.1471 3.63645 34.9679 3.58271 34.7171 3.58271C33.4453 3.58271 32.2451 4.38881 31.7614 5.55319H31.7256V3.83349H29.3073V13.0948Z"></path><path d="M39.6397 13.3456C42.1117 13.3456 43.7598 11.9841 44.1001 9.54791H41.646C41.4669 10.7839 40.7503 11.4288 39.6218 11.4288C38.1349 11.4288 37.508 10.0316 37.508 8.50893C37.508 7.00419 38.1349 5.49945 39.6755 5.49945C40.7682 5.49945 41.3952 6.03686 41.5564 7.09376H44.0464C43.921 4.87248 42.058 3.58271 39.6934 3.58271C36.7556 3.58271 34.9642 5.64276 34.9642 8.59849C34.9642 11.2855 36.7556 13.3456 39.6397 13.3456Z"></path><path d="M45.0452 13.0948H47.5889V0.304529H45.0452V13.0948Z"></path><path d="M52.8193 13.3456C55.0406 13.3456 56.4737 12.3245 57.1544 10.2286H54.9152C54.7181 10.8735 53.8583 11.4288 52.891 11.4288C51.44 11.4288 50.7055 10.6765 50.6339 9.08216H57.3156L57.3335 8.61641C57.3335 5.87564 55.7392 3.58271 52.8193 3.58271C50.0248 3.58271 48.0901 5.67859 48.0901 8.4731C48.0901 11.3213 49.8815 13.3456 52.8193 13.3456ZM50.6339 7.46994C50.7413 6.25182 51.4937 5.49945 52.7297 5.49945C53.912 5.49945 54.5211 6.07269 54.7719 7.46994H50.6339Z"></path><path d="M59.5513 12.7635H60.561V9.67131H61.7284V8.93507H58.3838V9.67131H59.5513V12.7635ZM62.2491 12.7635H63.2114V10.0542H63.2272L64.2842 12.7635H64.9626L66.0197 10.0542H66.0354V12.7635H66.9978V8.93507H65.6568L64.6313 11.453L63.6058 8.93507H62.2491V12.7635Z"></path></g></svg>